ScaledJumpMotion
version=1
nRows=32
nColumns=24
inDegrees=yes
endheader
time	pelvis_tilt	pelvis_list	pelvis_rotation	pelvis_tx	pelvis_ty	pelvis_tz	hip_flexion_r	hip_adduction_r	hip_rotation_r	knee_angle_r	ankle_angle_r	subtalar_angle_r	mtp_angle_r	hip_flexion_l	hip_adduction_l	hip_rotation_l	knee_angle_l	ankle_angle_l	subtalar_angle_l	mtp_angle_l	lumbar_extension	lumbar_bending	lumbar_rotation
0.83	0.0	0.0	0.0	0.0	0.8770068965517241	0.0	11.355641379310343	0.0	0.0	-22.711282758620687	11.355641379310343	0.0	0.0	11.355641379310343	0.0	0.0	-22.711282758620687	11.355641379310343	0.0	0.0	-7.570427586206895	0.0	0.0
0.84	0.0	0.0	0.0	0.0	0.8750858620689655	0.0	11.76728275862069	0.0	0.0	-23.53456551724138	11.76728275862069	0.0	0.0	11.76728275862069	0.0	0.0	-23.53456551724138	11.76728275862069	0.0	0.0	-7.8448551724137925	0.0	0.0
0.85	0.0	0.0	0.0	0.0	0.8732275862068966	0.0	12.165517241379309	0.0	0.0	-24.331034482758618	12.165517241379309	0.0	0.0	12.165517241379309	0.0	0.0	-24.331034482758618	12.165517241379309	0.0	0.0	-8.110344827586205	0.0	0.0
0.86	0.0	0.0	0.0	0.0	0.8714386206896552	0.0	12.548855172413793	0.0	0.0	-25.097710344827586	12.548855172413793	0.0	0.0	12.548855172413793	0.0	0.0	-25.097710344827586	12.548855172413793	0.0	0.0	-8.36590344827586	0.0	0.0
0.87	0.0	0.0	0.0	0.0	0.8697262068965518	0.0	12.915806896551723	0.0	0.0	-25.831613793103447	12.915806896551723	0.0	0.0	12.915806896551723	0.0	0.0	-25.831613793103447	12.915806896551723	0.0	0.0	-8.610537931034482	0.0	0.0
0.88	0.0	0.0	0.0	0.0	0.8680972413793103	0.0	13.264882758620688	0.0	0.0	-26.529765517241376	13.264882758620688	0.0	0.0	13.264882758620688	0.0	0.0	-26.529765517241376	13.264882758620688	0.0	0.0	-8.843255172413793	0.0	0.0
0.89	0.0	0.0	0.0	0.0	0.8665586206896552	0.0	13.594593103448275	0.0	0.0	-27.18918620689655	13.594593103448275	0.0	0.0	13.594593103448275	0.0	0.0	-27.18918620689655	13.594593103448275	0.0	0.0	-9.063062068965516	0.0	0.0
0.9	0.0	0.0	0.0	0.0	0.8651172413793105	0.0	13.903448275862068	0.0	0.0	-27.806896551724137	13.903448275862068	0.0	0.0	13.903448275862068	0.0	0.0	-27.806896551724137	13.903448275862068	0.0	0.0	-9.268965517241378	0.0	0.0
0.91	0.0	0.0	0.0	0.0	0.8637803448275863	0.0	14.189958620689653	0.0	0.0	-28.379917241379307	14.189958620689653	0.0	0.0	14.189958620689653	0.0	0.0	-28.379917241379307	14.189958620689653	0.0	0.0	-9.459972413793103	0.0	0.0
0.92	0.0	0.0	0.0	0.0	0.8625544827586207	0.0	14.45263448275862	0.0	0.0	-28.90526896551724	14.45263448275862	0.0	0.0	14.45263448275862	0.0	0.0	-28.90526896551724	14.45263448275862	0.0	0.0	-9.635089655172413	0.0	0.0
0.93	0.0	0.0	0.0	0.0	0.8614468965517241	0.0	14.68998620689655	0.0	0.0	-29.3799724137931	14.68998620689655	0.0	0.0	14.68998620689655	0.0	0.0	-29.3799724137931	14.68998620689655	0.0	0.0	-9.793324137931034	0.0	0.0
0.94	0.0	0.0	0.0	0.0	0.8604641379310345	0.0	14.900524137931033	0.0	0.0	-29.801048275862065	14.900524137931033	0.0	0.0	14.900524137931033	0.0	0.0	-29.801048275862065	14.900524137931033	0.0	0.0	-9.933682758620689	0.0	0.0
0.95	0.0	0.0	0.0	0.0	0.8596137931034483	0.0	15.082758620689654	0.0	0.0	-30.16551724137931	15.082758620689654	0.0	0.0	15.082758620689654	0.0	0.0	-30.16551724137931	15.082758620689654	0.0	0.0	-10.055172413793102	0.0	0.0
0.96	0.0	0.0	0.0	0.0	0.8589024137931035	0.0	15.235199999999999	0.0	0.0	-30.470399999999998	15.235199999999999	0.0	0.0	15.235199999999999	0.0	0.0	-30.470399999999998	15.235199999999999	0.0	0.0	-10.156799999999999	0.0	0.0
0.97	0.0	0.0	0.0	0.0	0.8583368965517242	0.0	15.356358620689653	0.0	0.0	-30.712717241379305	15.356358620689653	0.0	0.0	15.356358620689653	0.0	0.0	-30.712717241379305	15.356358620689653	0.0	0.0	-10.237572413793103	0.0	0.0
0.98	0.0	0.0	0.0	0.0	0.8579244827586208	0.0	15.444744827586206	0.0	0.0	-30.88948965517241	15.444744827586206	0.0	0.0	15.444744827586206	0.0	0.0	-30.88948965517241	15.444744827586206	0.0	0.0	-10.296496551724136	0.0	0.0
0.99	0.0	0.0	0.0	0.0	0.8576720689655173	0.0	15.49886896551724	0.0	0.0	-30.99773793103448	15.49886896551724	0.0	0.0	15.49886896551724	0.0	0.0	-30.99773793103448	15.49886896551724	0.0	0.0	-10.332579310344826	0.0	0.0
1.0	0.0	0.0	0.0	0.0	0.8575862068965517	0.0	15.517241379310343	0.0	0.0	-31.034482758620687	15.517241379310343	0.0	0.0	15.517241379310343	0.0	0.0	-31.034482758620687	15.517241379310343	0.0	0.0	-10.344827586206895	0.0	0.0
1.01	0.0	0.0	0.0	0.0	0.8584110344827587	0.0	15.404741379310343	0.0	0.0	-30.809482758620685	15.329741379310342	0.0	0.0	15.404741379310343	0.0	0.0	-30.809482758620685	15.329741379310342	0.0	0.0	-10.269827586206896	0.0	0.0
1.02	0.0	0.0	0.0	0.0	0.8607724137931034	0.0	15.082758620689654	0.0	0.0	-30.16551724137931	14.79310344827586	0.0	0.0	15.082758620689654	0.0	0.0	-30.16551724137931	14.79310344827586	0.0	0.0	-10.055172413793102	0.0	0.0
1.03	0.0	0.0	0.0	0.0	0.8644989655172415	0.0	14.57456896551724	0.0	0.0	-29.14913793103448	13.94612068965517	0.0	0.0	14.57456896551724	0.0	0.0	-29.14913793103448	13.94612068965517	0.0	0.0	-9.716379310344825	0.0	0.0
1.04	0.0	0.0	0.0	0.0	0.8694206896551725	0.0	13.903448275862068	0.0	0.0	-27.806896551724137	12.827586206896552	0.0	0.0	13.903448275862068	0.0	0.0	-27.806896551724137	12.827586206896552	0.0	0.0	-9.268965517241378	0.0	0.0
1.05	0.0	0.0	0.0	0.0	0.875366551724138	0.0	13.092672413793101	0.0	0.0	-26.185344827586203	11.476293103448274	0.0	0.0	13.092672413793101	0.0	0.0	-26.185344827586203	11.476293103448274	0.0	0.0	-8.728448275862068	0.0	0.0
1.06	0.0	0.0	0.0	0.0	0.8821655172413794	0.0	12.165517241379309	0.0	0.0	-24.331034482758618	9.93103448275862	0.0	0.0	12.165517241379309	0.0	0.0	-24.331034482758618	9.93103448275862	0.0	0.0	-8.110344827586205	0.0	0.0
1.07	0.0	0.0	0.0	0.0	0.8896475862068965	0.0	11.145258620689654	0.0	0.0	-22.29051724137931	8.230603448275861	0.0	0.0	11.145258620689654	0.0	0.0	-22.29051724137931	8.230603448275861	0.0	0.0	-7.430172413793103	0.0	0.0
1.08	0.0	0.0	0.0	0.0	0.8976413793103448	0.0	10.055172413793102	0.0	0.0	-20.110344827586204	6.413793103448276	0.0	0.0	10.055172413793102	0.0	0.0	-20.110344827586204	6.413793103448276	0.0	0.0	-6.703448275862069	0.0	0.0
1.09	0.0	0.0	0.0	0.0	0.9059768965517242	0.0	8.91853448275862	0.0	0.0	-17.83706896551724	4.519396551724137	0.0	0.0	8.91853448275862	0.0	0.0	-17.83706896551724	4.519396551724137	0.0	0.0	-5.945689655172413	0.0	0.0
1.1	0.0	0.0	0.0	0.0	0.9144827586206897	0.0	7.758620689655172	0.0	0.0	-15.517241379310343	2.5862068965517238	0.0	0.0	7.758620689655172	0.0	0.0	-15.517241379310343	2.5862068965517238	0.0	0.0	-5.1724137931034475	0.0	0.0
1.11	0.0	0.0	0.0	0.0	0.9229889655172414	0.0	6.5987068965517235	0.0	0.0	-13.197413793103447	0.6530172413793103	0.0	0.0	6.5987068965517235	0.0	0.0	-13.197413793103447	0.6530172413793103	0.0	0.0	-4.399137931034482	0.0	0.0
1.12	0.0	0.0	0.0	0.0	0.9313241379310345	0.0	5.462068965517241	0.0	0.0	-10.924137931034481	-1.2413793103448274	0.0	0.0	5.462068965517241	0.0	0.0	-10.924137931034481	-1.2413793103448274	0.0	0.0	-3.6413793103448273	0.0	0.0
1.13	0.0	0.0	0.0	0.0	0.939318275862069	0.0	4.37198275862069	0.0	0.0	-8.74396551724138	-3.0581896551724137	0.0	0.0	4.37198275862069	0.0	0.0	-8.74396551724138	-3.0581896551724137	0.0	0.0	-2.9146551724137932	0.0	0.0
1.14	0.0	0.0	0.0	0.0	0.9468000000000001	0.0	3.3517241379310345	0.0	0.0	-6.703448275862069	-4.758620689655173	0.0	0.0	3.3517241379310345	0.0	0.0	-6.703448275862069	-4.758620689655173	0.0	0.0	-2.2344827586206897	0.0	0.0
